<?xml version="1.0" encoding="utf-8"?><!-- Uploaded to: SVG Repo, www.svgrepo.com, Generator: SVG Repo Mixer Tools -->
<svg fill="#000000" width="800px" height="800px" viewBox="0 0 24 24" id="home-alt-2" data-name="Flat Color" xmlns="http://www.w3.org/2000/svg" class="icon flat-color"><path id="primary" d="M20,10V21a1,1,0,0,1-1,1H15.5a1,1,0,0,1-1-1V16.1a1,1,0,0,0-1-1h-3a1,1,0,0,0-1,1V21a1,1,0,0,1-1,1H5a1,1,0,0,1-1-1V10a1,1,0,0,1,.29-.71l7-7a1,1,0,0,1,1.42,0l7,7A1,1,0,0,1,20,10Z" style="fill: rgb(0, 0, 0);"></path></svg>