<svg xmlns="http://www.w3.org/2000/svg" xmlns:xlink="http://www.w3.org/1999/xlink" width="500" zoomAndPan="magnify" viewBox="0 0 375 187.499995" height="250" preserveAspectRatio="xMidYMid meet" version="1.0"><defs><g/><clipPath id="5c37087042"><path d="M 76 53 L 106 53 L 106 82 L 76 82 Z M 76 53 " clip-rule="nonzero"/></clipPath><clipPath id="a8b6066999"><path d="M 71.78125 67.234375 L 99.078125 47.539062 L 113.082031 66.949219 L 85.789062 86.644531 Z M 71.78125 67.234375 " clip-rule="nonzero"/></clipPath><clipPath id="7961873601"><path d="M 71.78125 67.234375 L 99.078125 47.539062 L 113.082031 66.949219 L 85.789062 86.644531 Z M 71.78125 67.234375 " clip-rule="nonzero"/></clipPath></defs><g clip-path="url(#5c37087042)"><g clip-path="url(#a8b6066999)"><g clip-path="url(#7961873601)"><path fill="#1fcc79" d="M 104.152344 54.894531 C 102.832031 53.289062 100.453125 52.699219 98.523438 53.433594 C 97.28125 53.90625 96.179688 54.882812 95.605469 56.085938 C 95.457031 55.96875 95.300781 55.855469 95.140625 55.75 C 93.230469 54.484375 90.667969 54.546875 88.625 55.480469 C 88.21875 55.660156 87.832031 55.871094 87.457031 56.105469 C 86.34375 56.726562 85.683594 57.773438 85.191406 58.890625 C 83.894531 61.796875 83.652344 65.324219 81.171875 67.535156 C 81.125 67.574219 81.113281 67.636719 81.144531 67.6875 C 81.175781 67.746094 81.246094 67.765625 81.304688 67.730469 C 81.796875 67.460938 82.246094 67.113281 82.644531 66.714844 C 83.820312 65.511719 84.53125 63.910156 85.144531 62.390625 C 85.890625 60.664062 86.488281 58.222656 88.117188 57.285156 C 90.058594 56.023438 92.582031 55.46875 94.765625 56.4375 C 94.96875 56.523438 95.164062 56.625 95.355469 56.734375 C 95.242188 57.105469 95.183594 57.492188 95.183594 57.886719 C 95.191406 58.375 95.332031 58.875 95.625 59.261719 C 95.65625 59.300781 95.710938 59.320312 95.761719 59.300781 C 95.824219 59.277344 95.855469 59.207031 95.832031 59.144531 C 95.679688 58.742188 95.660156 58.324219 95.734375 57.921875 C 95.785156 57.65625 95.867188 57.398438 95.976562 57.148438 C 96.046875 56.984375 96.128906 56.824219 96.21875 56.667969 C 97.007812 55.320312 98.519531 54.347656 100.050781 54.285156 C 101.121094 54.242188 102.210938 54.640625 102.96875 55.398438 C 103.320312 55.761719 103.589844 56.191406 103.839844 56.625 C 104.582031 57.929688 104.808594 59.519531 104.125 60.871094 C 103.722656 61.691406 103.144531 62.429688 102.445312 63.023438 C 101.152344 64.175781 99.675781 64.433594 98.148438 64.8125 C 98.789062 63.828125 99.148438 62.507812 98.449219 61.488281 C 98.371094 61.382812 98.199219 61.460938 98.234375 61.585938 C 98.40625 62.367188 98.203125 63.09375 97.847656 63.785156 C 97.605469 64.257812 97.285156 64.675781 97.007812 65.132812 C 96.820312 65.195312 96.628906 65.261719 96.4375 65.335938 C 95.980469 65.515625 95.546875 65.730469 95.125 65.96875 C 95.515625 64.789062 95.476562 63.410156 95.003906 62.347656 C 94.765625 61.789062 94.410156 61.242188 93.871094 60.933594 C 93.753906 60.863281 93.632812 61.027344 93.730469 61.121094 C 94.113281 61.511719 94.324219 62.023438 94.460938 62.539062 C 94.851562 63.945312 94.574219 65.460938 93.871094 66.71875 C 93.851562 66.757812 93.828125 66.796875 93.808594 66.835938 C 93.371094 67.160156 92.957031 67.507812 92.550781 67.875 C 92.558594 67.824219 92.5625 67.773438 92.566406 67.722656 C 92.644531 66.804688 92.417969 65.820312 91.84375 65.105469 C 91.8125 65.0625 91.753906 65.046875 91.703125 65.070312 C 91.640625 65.09375 91.613281 65.167969 91.640625 65.226562 C 91.746094 65.476562 91.820312 65.730469 91.871094 65.988281 C 92.011719 66.742188 91.917969 67.535156 91.636719 68.246094 C 90.929688 70.070312 88.804688 71.34375 86.925781 71.566406 C 85.890625 71.660156 84.828125 71.359375 83.777344 71.183594 C 83.648438 71.164062 83.585938 71.332031 83.691406 71.40625 C 84.167969 71.710938 84.664062 71.980469 85.207031 72.191406 C 86.332031 72.648438 87.410156 72.652344 88.480469 72.3125 C 88.246094 72.636719 88.027344 72.96875 87.835938 73.320312 C 87.320312 74.238281 86.941406 75.308594 86.113281 75.945312 C 84.4375 77.550781 80.710938 76.179688 79.167969 74.855469 C 77.835938 73.742188 77.332031 71.761719 78.015625 70.152344 C 78.871094 68.097656 80.824219 66.738281 82.003906 64.835938 C 82.566406 63.980469 82.847656 62.972656 83.214844 62.03125 C 83.265625 61.898438 83.074219 61.804688 83 61.929688 C 82.515625 62.804688 82.160156 63.738281 81.542969 64.519531 C 80.644531 65.691406 79.441406 66.65625 78.441406 67.777344 C 77.730469 68.5625 77.09375 69.496094 76.816406 70.539062 C 76.3125 72.308594 76.886719 74.308594 78.226562 75.578125 C 79.566406 76.863281 81.875 77.792969 83.726562 77.90625 C 84.855469 77.980469 86.097656 77.710938 86.960938 76.902344 C 87.210938 76.710938 87.429688 76.492188 87.621094 76.265625 C 88.617188 77.304688 89.59375 78.371094 90.519531 79.46875 C 91.078125 80.125 91.699219 80.949219 92.195312 81.65625 C 92.195312 81.65625 92.761719 80.640625 92.761719 80.640625 C 93.316406 79.660156 94.085938 78.738281 94.859375 77.894531 C 97.007812 75.609375 100.457031 72.59375 103.507812 71.777344 C 103.566406 71.761719 103.605469 71.703125 103.597656 71.644531 C 103.585938 71.578125 103.527344 71.535156 103.460938 71.542969 C 100.242188 72.101562 96.433594 74.875 94.011719 77.035156 C 93.320312 77.667969 92.664062 78.308594 92.070312 79.03125 C 90.875 77.707031 89.59375 76.480469 88.292969 75.265625 C 88.644531 74.648438 88.921875 74.027344 89.316406 73.433594 C 89.792969 72.722656 90.378906 72.082031 90.960938 71.4375 C 91.847656 70.464844 92.761719 69.488281 93.746094 68.640625 C 94.878906 67.667969 96.117188 66.855469 97.53125 66.402344 C 98.363281 66.140625 99.214844 65.988281 100.058594 65.75 C 100.761719 66.964844 101.605469 68.125 102.394531 69.285156 C 101.046875 69.703125 99.769531 70.324219 98.5625 71.050781 C 97.089844 71.957031 95.703125 73.085938 94.75 74.539062 C 94.71875 74.589844 94.730469 74.65625 94.777344 74.695312 C 94.824219 74.734375 94.902344 74.730469 94.941406 74.679688 C 95.476562 74.035156 96.113281 73.484375 96.792969 73.011719 C 98.492188 71.839844 100.453125 71.046875 102.457031 70.601562 C 102.855469 70.515625 103.253906 70.453125 103.636719 70.414062 C 103.636719 70.414062 104.707031 70.21875 104.707031 70.21875 C 104.550781 69.980469 104.078125 69.238281 103.917969 69.015625 C 103.082031 67.816406 102.113281 66.566406 101.316406 65.308594 C 103.050781 64.546875 104.5 63.148438 105.308594 61.433594 C 106.378906 59.203125 105.640625 56.734375 104.152344 54.894531 Z M 104.152344 54.894531 " fill-opacity="1" fill-rule="nonzero"/></g></g></g><g fill="#1fcc79" fill-opacity="1"><g transform="translate(91.664475, 113.685284)"><g><path d="M 20.417969 -21.832031 C 21.773438 -21.832031 25.847656 -21.886719 27.261719 -22 C 27.941406 -22.058594 28.390625 -22.398438 28.617188 -22.90625 C 29.070312 -23.925781 30.316406 -27.203125 30.316406 -29.410156 C 30.316406 -34.105469 20.585938 -38.234375 17.417969 -38.234375 C 8.144531 -38.234375 1.867188 -25.449219 1.867188 -14.988281 C 1.867188 -11.480469 2.546875 -7.804688 4.355469 -5.65625 C 7.351562 -2.09375 12.554688 0.0546875 16.34375 0.0546875 C 20.472656 0.0546875 23.753906 -2.488281 26.300781 -4.863281 C 26.640625 -5.203125 26.808594 -5.597656 26.808594 -6.050781 C 26.808594 -6.222656 26.75 -6.449219 26.695312 -6.675781 C 26.355469 -8.03125 25.507812 -10.519531 25 -11.933594 C 24.886719 -12.273438 24.546875 -12.5 24.148438 -12.5 C 23.925781 -12.5 23.640625 -12.441406 23.414062 -12.273438 C 21.773438 -11.199219 18.609375 -9.332031 16.007812 -9.332031 C 13.742188 -9.332031 11.765625 -11.140625 11.765625 -15.496094 C 11.765625 -22.226562 16.007812 -30.203125 19.058594 -30.203125 C 20.191406 -30.203125 20.53125 -29.128906 20.53125 -27.65625 C 20.53125 -25.960938 19.625 -22.960938 19.625 -22.511719 C 19.625 -22.058594 19.910156 -21.832031 20.417969 -21.832031 Z M 20.417969 -21.832031 "/></g></g></g><g fill="#1fcc79" fill-opacity="1"><g transform="translate(120.281482, 113.685284)"><g><path d="M 12.101562 -7.636719 C 10.972656 -7.636719 10.351562 -8.824219 10.351562 -10.578125 C 10.40625 -14.480469 12.78125 -21.945312 15.042969 -21.945312 C 16.0625 -21.945312 16.683594 -20.699219 16.683594 -18.664062 C 16.683594 -14.875 14.707031 -7.636719 12.101562 -7.636719 Z M 26.074219 -17.25 C 26.074219 -19.683594 25.394531 -22.960938 23.585938 -24.660156 C 20.53125 -27.488281 14.140625 -29.242188 12.554688 -29.242188 C 4.636719 -29.242188 0.960938 -17.703125 0.960938 -11.933594 C 0.960938 -9.105469 1.355469 -7.011719 2.546875 -5.261719 C 5.148438 -1.414062 11.480469 0 13.96875 0 C 23.300781 0 26.074219 -12.5 26.074219 -17.25 Z M 26.074219 -17.25 "/></g></g></g><g fill="#1fcc79" fill-opacity="1"><g transform="translate(146.749387, 113.685284)"><g><path d="M 27.203125 -26.808594 C 25.449219 -27.65625 20.757812 -28.84375 20.023438 -28.84375 C 19.398438 -28.84375 18.890625 -28.390625 18.71875 -27.882812 C 17.703125 -24.941406 16.117188 -18.777344 15.496094 -13.96875 C 15.042969 -11.878906 12.160156 -9.332031 10.859375 -9.332031 C 10.578125 -9.332031 10.464844 -9.726562 10.464844 -10.464844 C 10.464844 -13.460938 12.441406 -21.378906 13.460938 -24.546875 C 13.460938 -24.546875 13.515625 -24.828125 13.515625 -25.054688 C 13.515625 -25.507812 13.347656 -25.902344 13.007812 -26.128906 C 12.046875 -26.75 7.011719 -28.675781 5.9375 -28.675781 C 5.316406 -28.675781 4.921875 -28.277344 4.75 -27.769531 C 3.335938 -24.261719 0.960938 -15.78125 0.960938 -8.710938 C 0.960938 -4.523438 5.824219 0.0546875 9.105469 0.0546875 C 11.199219 0.0546875 13.460938 -2.09375 15.214844 -5.316406 C 15.328125 -5.542969 15.441406 -5.65625 15.554688 -5.65625 C 15.667969 -5.65625 15.78125 -5.484375 15.835938 -5.148438 L 16.117188 -2.941406 C 16.230469 -2.035156 16.796875 -1.527344 17.417969 -1.300781 C 18.496094 -0.90625 21.71875 -0.0546875 22.847656 -0.0546875 C 23.414062 -0.0546875 23.867188 -0.507812 23.867188 -1.074219 C 23.980469 -5.996094 25.28125 -16.515625 27.828125 -25.28125 C 27.828125 -25.28125 27.882812 -25.449219 27.882812 -25.621094 C 27.882812 -26.074219 27.65625 -26.640625 27.203125 -26.808594 Z M 27.203125 -26.808594 "/></g></g></g><g fill="#1fcc79" fill-opacity="1"><g transform="translate(173.952509, 113.685284)"><g><path d="M 22.171875 -27.769531 C 21.945312 -28.449219 21.324219 -28.84375 20.699219 -28.84375 C 18.71875 -28.84375 7.917969 -28.617188 4.183594 -28.054688 C 3.5625 -27.996094 2.996094 -27.375 2.996094 -26.75 C 2.996094 -24.941406 3.28125 -22.398438 3.507812 -20.984375 C 3.621094 -20.359375 4.183594 -19.851562 4.75 -19.851562 C 5.996094 -19.910156 10.238281 -20.132812 10.578125 -20.132812 C 10.859375 -20.132812 10.972656 -20.023438 10.972656 -19.910156 C 10.972656 -19.796875 10.859375 -19.683594 10.691406 -19.511719 C 6.449219 -15.949219 2.09375 -11.539062 0.621094 -9.839844 C 0.226562 -9.445312 0 -8.992188 0 -8.3125 C 0 -7.125 0.960938 -2.882812 1.867188 -0.960938 C 2.09375 -0.453125 2.546875 -0.0546875 3.335938 -0.0546875 C 4.070312 -0.0546875 11.539062 -0.621094 17.25 -0.621094 L 18.890625 -0.621094 C 19.570312 -0.621094 20.078125 -1.074219 20.078125 -1.640625 C 20.078125 -3.621094 19.683594 -6.675781 19.285156 -8.3125 C 19.117188 -8.824219 18.609375 -9.445312 17.816406 -9.445312 C 16.910156 -9.445312 13.121094 -9.386719 12.5 -9.386719 C 12.160156 -9.386719 11.992188 -9.5 11.992188 -9.671875 C 11.992188 -9.785156 12.101562 -9.953125 12.273438 -10.125 C 15.214844 -12.726562 18.890625 -15.722656 22.398438 -18.4375 C 22.90625 -18.832031 23.246094 -19.511719 23.246094 -20.078125 C 23.246094 -20.871094 22.734375 -25.339844 22.171875 -27.769531 Z M 22.171875 -27.769531 "/></g></g></g><g fill="#1fcc79" fill-opacity="1"><g transform="translate(196.631204, 113.685284)"><g><path d="M 9.726562 -41.457031 C 8.9375 -41.457031 8.199219 -41.230469 7.691406 -40.835938 C 6.335938 -39.703125 4.976562 -38.007812 4.976562 -35.972656 C 4.976562 -33.03125 6.617188 -30.710938 9.953125 -30.710938 C 13.855469 -30.710938 16.34375 -33.144531 16.34375 -36.308594 C 16.34375 -39.136719 13.855469 -41.457031 9.726562 -41.457031 Z M 9.277344 -1.019531 C 10.011719 -7.691406 12.101562 -18.269531 13.800781 -25.734375 C 13.800781 -25.734375 13.855469 -25.960938 13.855469 -26.074219 C 13.855469 -26.527344 13.574219 -26.921875 13.121094 -27.148438 C 12.160156 -27.601562 6.730469 -28.84375 5.882812 -28.84375 C 5.148438 -28.84375 4.636719 -28.449219 4.46875 -27.882812 C 2.941406 -23.132812 0.679688 -9.671875 0.339844 -3.449219 C 0.339844 -2.660156 0.621094 -2.148438 1.246094 -1.867188 C 2.433594 -1.355469 7.125 -0.0546875 8.199219 -0.0546875 C 8.710938 -0.0546875 9.164062 -0.453125 9.277344 -1.019531 Z M 9.277344 -1.019531 "/></g></g></g><g fill="#1fcc79" fill-opacity="1"><g transform="translate(209.582378, 113.685284)"><g><path d="M 13.742188 -24.375 C 13.742188 -24.375 13.515625 -24.09375 13.347656 -24.09375 C 13.234375 -24.09375 13.121094 -24.207031 13.121094 -24.601562 L 13.007812 -26.46875 C 12.953125 -27.316406 12.613281 -27.828125 11.992188 -28.054688 C 10.859375 -28.449219 6.390625 -29.296875 5.316406 -29.296875 C 4.75 -29.296875 4.183594 -28.902344 4.070312 -28.335938 C 3.394531 -23.472656 1.132812 -8.710938 0.226562 -4.070312 C 0.226562 -4.070312 0.167969 -3.789062 0.167969 -3.621094 C 0.167969 -3.054688 0.339844 -2.488281 0.90625 -2.207031 C 1.921875 -1.640625 6.503906 -0.113281 7.917969 -0.113281 C 8.484375 -0.113281 8.878906 -0.507812 9.050781 -1.019531 C 9.726562 -4.242188 11.027344 -10.972656 12.046875 -16.175781 C 12.160156 -16.742188 12.386719 -17.417969 12.953125 -17.984375 C 14.082031 -19.171875 15.835938 -20.132812 16.34375 -20.132812 C 16.683594 -20.132812 16.796875 -19.625 16.796875 -18.777344 C 16.796875 -15.496094 14.929688 -7.410156 14.195312 -4.183594 C 14.195312 -4.183594 14.140625 -3.960938 14.140625 -3.734375 C 14.140625 -3.222656 14.367188 -2.828125 14.875 -2.488281 C 15.949219 -1.753906 20.53125 -0.0546875 21.945312 -0.0546875 C 22.566406 -0.0546875 23.074219 -0.507812 23.246094 -1.019531 C 24.773438 -7.070312 27.089844 -19.34375 27.089844 -22.113281 C 27.089844 -24.941406 22.566406 -29.070312 19.851562 -29.070312 C 17.816406 -29.070312 15.609375 -27.148438 13.742188 -24.375 Z M 13.742188 -24.375 "/></g></g></g><g fill="#1fcc79" fill-opacity="1"><g transform="translate(236.842055, 113.685284)"><g><path d="M 20.078125 -21.546875 C 20.304688 -22.847656 20.472656 -25.226562 20.472656 -26.976562 L 20.472656 -27.542969 C 20.417969 -28.164062 20.191406 -28.84375 19.285156 -28.902344 L 17.082031 -28.902344 C 16.628906 -29.015625 16.457031 -29.296875 16.457031 -29.691406 C 16.457031 -29.804688 16.515625 -30.089844 16.515625 -30.089844 C 17.023438 -32.179688 17.589844 -33.992188 17.984375 -35.179688 C 17.984375 -35.179688 18.042969 -35.40625 18.042969 -35.632812 C 18.042969 -36.085938 17.816406 -36.535156 17.363281 -36.707031 C 15.835938 -37.386719 11.425781 -38.6875 10.238281 -38.6875 C 9.726562 -38.6875 9.21875 -38.347656 8.992188 -37.835938 C 8.257812 -36.308594 7.351562 -33.3125 6.503906 -29.863281 C 6.335938 -29.296875 6.164062 -28.789062 5.542969 -28.730469 C 4.976562 -28.675781 4.015625 -28.617188 3.734375 -28.5625 C 2.769531 -28.449219 2.433594 -27.941406 2.375 -27.375 C 2.320312 -26.414062 2.261719 -25 2.261719 -23.753906 C 2.261719 -22.960938 2.261719 -22.285156 2.320312 -21.71875 C 2.375 -21.097656 2.714844 -20.585938 3.335938 -20.585938 L 3.675781 -20.585938 C 4.070312 -20.585938 4.242188 -20.359375 4.242188 -19.964844 C 4.242188 -19.851562 4.183594 -19.570312 4.183594 -19.570312 C 3.449219 -16.007812 2.882812 -12.5 2.882812 -10.238281 C 2.882812 -5.9375 5.542969 -1.640625 10.746094 -0.167969 C 10.746094 -0.167969 10.972656 -0.113281 11.199219 -0.113281 C 11.707031 -0.113281 12.214844 -0.394531 12.554688 -0.734375 C 13.96875 -2.320312 15.328125 -4.582031 15.949219 -6.109375 C 15.949219 -6.109375 16.0625 -6.390625 16.0625 -6.617188 C 16.0625 -7.011719 15.894531 -7.464844 15.496094 -7.691406 C 13.574219 -8.597656 12.726562 -9.671875 12.726562 -11.933594 C 12.726562 -13.292969 13.460938 -17.082031 13.96875 -19.457031 C 14.140625 -20.023438 14.648438 -20.472656 15.269531 -20.472656 L 18.664062 -20.472656 C 19.398438 -20.472656 19.910156 -20.925781 20.078125 -21.546875 Z M 20.078125 -21.546875 "/></g></g></g><g fill="#1fcc79" fill-opacity="1"><g transform="translate(256.127431, 113.685284)"><g><path d="M 18.945312 -28.054688 C 17.53125 -24.546875 16.117188 -17.929688 15.496094 -13.6875 C 15.441406 -13.347656 15.328125 -13.066406 15.101562 -12.667969 C 14.027344 -10.914062 12.160156 -9.21875 10.914062 -9.21875 C 10.691406 -9.21875 10.519531 -9.613281 10.519531 -10.292969 C 10.519531 -13.234375 12.441406 -21.324219 13.460938 -24.488281 C 13.460938 -24.488281 13.515625 -24.773438 13.515625 -24.941406 C 13.515625 -25.394531 13.347656 -25.847656 13.007812 -26.074219 C 12.101562 -26.640625 6.675781 -28.675781 6.050781 -28.675781 C 5.484375 -28.675781 4.921875 -28.277344 4.75 -27.769531 C 3.335938 -24.433594 0.960938 -16.175781 0.960938 -9.332031 C 0.960938 -5.148438 5.996094 -0.734375 9.164062 -0.734375 C 10.914062 -0.734375 12.78125 -2.207031 14.421875 -4.410156 C 14.59375 -4.636719 14.648438 -4.75 14.707031 -4.75 C 14.761719 -4.75 14.816406 -4.582031 14.816406 -4.242188 C 14.816406 -2.601562 13.574219 2.09375 9.558594 2.09375 C 8.539062 2.09375 7.070312 1.808594 5.203125 1.074219 C 5.203125 1.074219 4.921875 0.960938 4.75 0.960938 C 4.296875 0.960938 4.015625 1.300781 3.847656 1.808594 C 3.449219 2.996094 2.996094 4.808594 2.769531 5.65625 C 2.769531 5.65625 2.660156 6.050781 2.660156 6.335938 C 2.660156 6.898438 2.882812 7.410156 3.394531 7.691406 C 5.089844 8.765625 8.484375 10.292969 11.085938 10.292969 C 19.570312 10.292969 22.453125 1.921875 23.074219 -1.582031 C 24.488281 -9.277344 26.640625 -20.585938 27.769531 -24.886719 C 27.769531 -24.886719 27.828125 -25.167969 27.828125 -25.28125 C 27.828125 -25.734375 27.601562 -26.1875 27.203125 -26.46875 C 26.074219 -27.203125 21.210938 -28.84375 20.132812 -28.84375 C 19.625 -28.84375 19.171875 -28.503906 18.945312 -28.054688 Z M 18.945312 -28.054688 "/></g></g></g></svg>